<svg viewBox="0 0 512 512" xmlns="http://www.w3.org/2000/svg" role="img" aria-labelledby="title desc">
  <title id="title">Model Checker logo</title>
  <desc id="desc">A geometric model inspection mark with connected nodes and a check shape.</desc>
  <defs>
    <linearGradient id="panel" x1="96" y1="72" x2="416" y2="440" gradientUnits="userSpaceOnUse">
      <stop offset="0" stop-color="#60A5FA" />
      <stop offset="1" stop-color="#14B8A6" />
    </linearGradient>
    <filter id="softShadow" x="-20%" y="-20%" width="140%" height="140%">
      <feDropShadow dx="0" dy="18" stdDeviation="18" flood-color="#0F172A" flood-opacity="0.20" />
    </filter>
  </defs>

  <rect width="512" height="512" rx="116" fill="#0F172A" />
  <path d="M256 58 424 155v194L256 446 88 349V155L256 58Z" fill="url(#panel)" filter="url(#softShadow)" />
  <path d="M256 108 381 180v144L256 396 131 324V180L256 108Z" fill="#0F172A" opacity="0.92" />

  <path d="M174 256h164" stroke="#E2E8F0" stroke-width="18" stroke-linecap="round" opacity="0.22" />
  <path d="M256 164v184" stroke="#E2E8F0" stroke-width="18" stroke-linecap="round" opacity="0.18" />
  <path d="M185 215 256 174l71 41" fill="none" stroke="#E2E8F0" stroke-width="14" stroke-linecap="round" stroke-linejoin="round" opacity="0.20" />
  <path d="M185 297 256 338l71-41" fill="none" stroke="#E2E8F0" stroke-width="14" stroke-linecap="round" stroke-linejoin="round" opacity="0.20" />

  <circle cx="185" cy="215" r="22" fill="#14B8A6" />
  <circle cx="327" cy="215" r="22" fill="#60A5FA" />
  <circle cx="185" cy="297" r="22" fill="#60A5FA" />
  <circle cx="327" cy="297" r="22" fill="#14B8A6" />

  <circle cx="256" cy="256" r="72" fill="#0F172A" stroke="#E2E8F0" stroke-width="14" opacity="0.98" />
  <path d="M220 257 246 284 296 225" fill="none" stroke="#14B8A6" stroke-width="22" stroke-linecap="round" stroke-linejoin="round" />
</svg>
